<mxfile host="drawio-plugin" modified="2022-07-09T10:17:41.436Z" agent="5.0 (Macintosh; Intel Mac OS X 12_4_0) AppleWebKit/537.36 (KHTML, like Gecko) Chrome/89.0.4389.114 Safari/537.36" etag="HmVAJEYIdgFiK3viQlPT" version="15.5.4" type="embed"><diagram id="Fl3XB9evv3VIsgJJsz6p" name="Page-1"><mxGraphModel dx="998" dy="603" grid="1" gridSize="10" guides="1" tooltips="1" connect="1" arrows="1" fold="1" page="1" pageScale="1" pageWidth="827" pageHeight="1169" math="0" shadow="0"><root><mxCell id="0"/><mxCell id="1" parent="0"/><mxCell id="IXKNuTAEehfw4H-Gja5D-3" value="&lt;pre style=&quot;background-color: rgb(255, 255, 255); font-family: &amp;quot;JetBrains Mono&amp;quot;, monospace; font-size: 10.5pt;&quot;&gt;AsyncWebClient&lt;/pre&gt;" style="rounded=1;whiteSpace=wrap;html=1;fillColor=#dae8fc;strokeColor=#6c8ebf;" parent="1" vertex="1"><mxGeometry x="670" y="430" width="120" height="60" as="geometry"/></mxCell><mxCell id="IXKNuTAEehfw4H-Gja5D-11" value="" style="edgeStyle=orthogonalEdgeStyle;rounded=0;orthogonalLoop=1;jettySize=auto;html=1;dashed=1;" parent="1" source="IXKNuTAEehfw4H-Gja5D-7" target="IXKNuTAEehfw4H-Gja5D-10" edge="1"><mxGeometry relative="1" as="geometry"/></mxCell><mxCell id="IXKNuTAEehfw4H-Gja5D-13" value="" style="edgeStyle=orthogonalEdgeStyle;rounded=0;orthogonalLoop=1;jettySize=auto;html=1;dashed=1;" parent="1" source="IXKNuTAEehfw4H-Gja5D-7" target="IXKNuTAEehfw4H-Gja5D-12" edge="1"><mxGeometry relative="1" as="geometry"/></mxCell><mxCell id="IXKNuTAEehfw4H-Gja5D-16" value="" style="edgeStyle=orthogonalEdgeStyle;rounded=0;orthogonalLoop=1;jettySize=auto;html=1;dashed=1;" parent="1" source="IXKNuTAEehfw4H-Gja5D-7" target="IXKNuTAEehfw4H-Gja5D-15" edge="1"><mxGeometry relative="1" as="geometry"><Array as="points"><mxPoint x="620" y="125"/><mxPoint x="620" y="295"/></Array></mxGeometry></mxCell><mxCell id="IXKNuTAEehfw4H-Gja5D-17" value="create&lt;br&gt;actor" style="edgeLabel;html=1;align=center;verticalAlign=middle;resizable=0;points=[];" parent="IXKNuTAEehfw4H-Gja5D-16" vertex="1" connectable="0"><mxGeometry x="-0.7371" y="1" relative="1" as="geometry"><mxPoint as="offset"/></mxGeometry></mxCell><mxCell id="IXKNuTAEehfw4H-Gja5D-7" value="&amp;lt;&amp;lt;&lt;span style=&quot;background-color: rgb(255, 255, 255); font-family: &amp;quot;JetBrains Mono&amp;quot;, monospace; font-size: 10.5pt;&quot;&gt;ControllerActor&lt;/span&gt;&lt;span style=&quot;background-color: initial;&quot;&gt;&amp;gt;&amp;gt;&lt;/span&gt;&lt;br&gt;&lt;br&gt;&lt;b&gt;Actor1&lt;/b&gt;" style="text;html=1;align=center;verticalAlign=middle;dashed=0;fillColor=#ffffff;strokeColor=#000000;" parent="1" vertex="1"><mxGeometry x="370" y="90" width="160" height="70" as="geometry"/></mxCell><mxCell id="IXKNuTAEehfw4H-Gja5D-22" style="edgeStyle=orthogonalEdgeStyle;rounded=0;orthogonalLoop=1;jettySize=auto;html=1;dashed=1;" parent="1" source="IXKNuTAEehfw4H-Gja5D-10" target="IXKNuTAEehfw4H-Gja5D-3" edge="1"><mxGeometry relative="1" as="geometry"><Array as="points"><mxPoint x="890" y="75"/><mxPoint x="890" y="460"/></Array></mxGeometry></mxCell><mxCell id="IXKNuTAEehfw4H-Gja5D-10" value="&amp;lt;&amp;lt;&lt;span style=&quot;font-family: &amp;quot;JetBrains Mono&amp;quot;, monospace; font-size: 14px; background-color: rgb(255, 255, 255);&quot;&gt;GetLinksActor&lt;/span&gt;&lt;span style=&quot;background-color: initial;&quot;&gt;&amp;gt;&amp;gt;&lt;/span&gt;&lt;br&gt;&lt;br&gt;&lt;b&gt;Actor1..n&lt;/b&gt;" style="text;html=1;align=center;verticalAlign=middle;dashed=0;fillColor=#ffffff;strokeColor=#000000;" parent="1" vertex="1"><mxGeometry x="710" y="40" width="160" height="70" as="geometry"/></mxCell><mxCell id="IXKNuTAEehfw4H-Gja5D-21" style="edgeStyle=orthogonalEdgeStyle;rounded=0;orthogonalLoop=1;jettySize=auto;html=1;dashed=1;" parent="1" source="IXKNuTAEehfw4H-Gja5D-12" edge="1"><mxGeometry relative="1" as="geometry"><mxPoint x="890" y="360" as="targetPoint"/></mxGeometry></mxCell><mxCell id="IXKNuTAEehfw4H-Gja5D-12" value="&amp;lt;&amp;lt;&lt;span style=&quot;font-family: &amp;quot;JetBrains Mono&amp;quot;, monospace; font-size: 14px; background-color: rgb(255, 255, 255);&quot;&gt;GetLinksActor&lt;/span&gt;&lt;span style=&quot;background-color: initial;&quot;&gt;&amp;gt;&amp;gt;&lt;/span&gt;&lt;br&gt;&lt;br&gt;&lt;b&gt;Actor1..n&lt;/b&gt;" style="text;html=1;align=center;verticalAlign=middle;dashed=0;fillColor=#ffffff;strokeColor=#000000;" parent="1" vertex="1"><mxGeometry x="710" y="130" width="160" height="70" as="geometry"/></mxCell><mxCell id="IXKNuTAEehfw4H-Gja5D-19" style="edgeStyle=orthogonalEdgeStyle;rounded=0;orthogonalLoop=1;jettySize=auto;html=1;entryX=0.5;entryY=1;entryDx=0;entryDy=0;dashed=1;" parent="1" source="IXKNuTAEehfw4H-Gja5D-15" target="IXKNuTAEehfw4H-Gja5D-7" edge="1"><mxGeometry relative="1" as="geometry"/></mxCell><mxCell id="IXKNuTAEehfw4H-Gja5D-20" value="send message&lt;br&gt;with each found link" style="edgeLabel;html=1;align=center;verticalAlign=middle;resizable=0;points=[];" parent="IXKNuTAEehfw4H-Gja5D-19" vertex="1" connectable="0"><mxGeometry x="0.1896" y="-1" relative="1" as="geometry"><mxPoint as="offset"/></mxGeometry></mxCell><mxCell id="IXKNuTAEehfw4H-Gja5D-23" style="edgeStyle=orthogonalEdgeStyle;rounded=0;orthogonalLoop=1;jettySize=auto;html=1;dashed=1;" parent="1" source="IXKNuTAEehfw4H-Gja5D-15" edge="1"><mxGeometry relative="1" as="geometry"><mxPoint x="800" y="460" as="targetPoint"/><Array as="points"><mxPoint x="890" y="285"/><mxPoint x="890" y="460"/></Array></mxGeometry></mxCell><mxCell id="IXKNuTAEehfw4H-Gja5D-15" value="&amp;lt;&amp;lt;&lt;span style=&quot;background-color: rgb(255, 255, 255); font-family: &amp;quot;JetBrains Mono&amp;quot;, monospace; font-size: 10.5pt;&quot;&gt;ControllerActor&lt;/span&gt;&lt;span style=&quot;background-color: initial;&quot;&gt;&amp;gt;&amp;gt;&lt;/span&gt;&lt;br&gt;&lt;br&gt;&lt;b&gt;Actor1&lt;/b&gt;" style="text;html=1;align=center;verticalAlign=middle;dashed=0;fillColor=#ffffff;strokeColor=#000000;" parent="1" vertex="1"><mxGeometry x="710" y="250" width="160" height="70" as="geometry"/></mxCell><mxCell id="IXKNuTAEehfw4H-Gja5D-25" style="edgeStyle=orthogonalEdgeStyle;rounded=0;orthogonalLoop=1;jettySize=auto;html=1;entryX=0;entryY=0.5;entryDx=0;entryDy=0;dashed=1;" parent="1" source="IXKNuTAEehfw4H-Gja5D-24" target="IXKNuTAEehfw4H-Gja5D-7" edge="1"><mxGeometry relative="1" as="geometry"/></mxCell><mxCell id="IXKNuTAEehfw4H-Gja5D-26" value="check&lt;br&gt;url" style="edgeLabel;html=1;align=center;verticalAlign=middle;resizable=0;points=[];" parent="IXKNuTAEehfw4H-Gja5D-25" vertex="1" connectable="0"><mxGeometry x="-0.25" y="1" relative="1" as="geometry"><mxPoint as="offset"/></mxGeometry></mxCell><mxCell id="IXKNuTAEehfw4H-Gja5D-24" value="&amp;lt;&amp;lt;MainActor&amp;gt;&amp;gt;&lt;br&gt;&lt;br&gt;&lt;b&gt;Actor1&lt;/b&gt;" style="text;html=1;align=center;verticalAlign=middle;dashed=0;fillColor=#ffffff;strokeColor=#000000;" parent="1" vertex="1"><mxGeometry x="90" y="90" width="160" height="70" as="geometry"/></mxCell></root></mxGraphModel></diagram></mxfile>